# xmcd
# 
# Track frame offsets:
#     150
#     39554
#     93029
#     126315
#     177150
#     243823
#     295411
# 
# Disc length: 4682
# 
# Revision: 13
# Processed by: cddbd v1.5.2PL0 Copyright (c) Steve Scherf et al.
# Submitted via: fre:ac v1.0.17
# 
DISCID=58124807
DTITLE=Dvorak Antonin - Symphonie N°9 'Du Nouveau Monde' and Concerto pour violoncelle
DYEAR=0
DGENRE=Classical
TTITLE0=Symphonie N°9I. Adagio - Allegro molto  [G.Szell, Orch. Philh. Berlin - 1994]
TTITLE1=II. Largo
TTITLE2=III. Scherzo. Molto vivace
TTITLE3=IV. Allegro con fuoco
TTITLE4=Concerto pour violoncelle. I. Allegro  [J.Levine, Staatskapelle Dresden, P.Fournier - 1961]
TTITLE5=II. Adagio ma non troppo
TTITLE6=III. Finale. Allegro moderato
EXTD=Staatskapelle Dresden - James Levine\nPierre Fournier - Cello\nBerliner Philharmoniker - George Szell\n
EXTT0=Staatskapelle Dresden - James Levine
EXTT1=Staatskapelle Dresden - James Levine\n
EXTT2=Staatskapelle Dresden - James Levine\n
EXTT3=Staatskapelle Dresden - James Levine\n
EXTT4=Berliner Philharmoniker - George Szell\nPierre Fournier - Cello
EXTT5=Berliner Philharmoniker - George Szell\nPierre Fournier - Cello\n
EXTT6=Berliner Philharmoniker - George Szell\nPierre Fournier - Cello\n
PLAYORDER=
